<svg xmlns="http://www.w3.org/2000/svg" xmlns:xlink="http://www.w3.org/1999/xlink" preserveAspectRatio="xMidYMid" width="182" height="300" viewBox="0 0 180 300">
  <defs>
    <style>
      .cls-1 {
        fill: #f5f4f4;
      }

      .cls-2, .cls-9 {
        fill: #5c4b51;
      }

      .cls-3 {
        fill: #8cbeb2;
      }

      .cls-3, .cls-4, .cls-5, .cls-6, .cls-7, .cls-8, .cls-9 {
        fill-rule: evenodd;
      }

      .cls-4 {
        fill: #f06060;
      }

      .cls-5 {
        fill: #f3b562;
      }

      .cls-6 {
        stroke: #5c4b51;
        stroke-width: 2px;
        stroke-dasharray: 4,8;
        fill: none;
      }

      .cls-7 {
        fill: #f5f4f5;
      }

      .cls-8 {
        fill: #fff;
      }
    </style>
  </defs>
  <g>
    <rect width="180" height="300" class="cls-2"/>
    <g>
      <path d="M86.062,48.131 L90.589,56.046 L92.853,47.000 L86.062,48.131 Z" class="cls-3"/>
      <path d="M115.829,195.138 L116.961,203.054 L120.357,201.923 L115.829,195.138 Z" class="cls-3"/>
      <path d="M115.488,60.569 L118.884,66.223 L121.147,65.092 L118.884,56.046 L115.488,60.569 Z" class="cls-4"/>
      <path d="M47.558,55.792 L49.822,58.054 L53.217,53.531 L47.558,55.792 Z" class="cls-3"/>
      <path d="M41.922,114.846 L50.977,125.023 L50.977,118.238 L41.922,114.846 Z" class="cls-4"/>
      <path d="M60.031,154.423 L64.558,151.031 L65.690,155.554 L60.031,154.423 Z" class="cls-3"/>
      <path d="M142.364,60.792 L144.628,64.185 L151.419,63.054 L149.155,56.269 L142.364,60.792 Z" class="cls-5"/>
      <path d="M167.550,101.277 L167.550,103.538 L170.946,103.538 L170.946,101.277 L167.550,101.277 Z" class="cls-3"/>
      <path d="M48.946,226.069 L51.209,223.808 L53.473,227.200 L48.946,226.069 Z" class="cls-4"/>
      <path d="M151.078,195.246 L159.000,194.115 L156.736,199.769 L151.078,195.246 Z" class="cls-5"/>
      <path d="M143.938,229.869 L139.411,221.954 L137.147,231.000 L143.938,229.869 Z" class="cls-3"/>
      <path d="M86.171,197.862 L85.039,189.946 L81.643,191.077 L86.171,197.862 Z" class="cls-3"/>
      <path d="M98.512,180.431 L95.116,174.777 L92.853,175.908 L95.116,184.954 L98.512,180.431 Z" class="cls-4"/>
      <path d="M126.442,149.208 L124.178,146.946 L120.783,151.469 L126.442,149.208 Z" class="cls-5"/>
      <path d="M143.078,142.154 L134.023,131.977 L134.023,138.762 L143.078,142.154 Z" class="cls-4"/>
      <path d="M33.077,247.154 L24.023,236.977 L24.023,243.762 L33.077,247.154 Z" class="cls-4"/>
      <path d="M136.969,94.577 L132.442,97.969 L131.310,93.446 L136.969,94.577 Z" class="cls-3"/>
      <path d="M37.636,204.208 L35.372,200.815 L28.581,201.946 L30.845,208.731 L37.636,204.208 Z" class="cls-5"/>
      <path d="M46.450,139.723 L46.450,137.462 L43.054,137.462 L43.054,139.723 L46.450,139.723 Z" class="cls-3"/>
      <path d="M55.054,93.931 L52.791,96.192 L50.527,92.800 L55.054,93.931 Z" class="cls-4"/>
      <path d="M27.922,75.754 L20.000,76.885 L22.264,71.231 L27.922,75.754 Z" class="cls-5"/>
    </g>
    <path d="M181.000,2.000 L181.000,300.000 L181.000,2.000 Z" class="cls-6"/>
    <g>
      <path d="M106.000,294.986 L73.000,294.986 L73.000,5.007 L106.000,5.007 L106.000,294.986 Z" class="cls-7"/>
      <path d="M5.008,166.000 L5.008,133.000 L173.996,133.000 L173.996,166.000 L5.008,166.000 Z" class="cls-7"/>
      <path d="M143.654,164.253 C143.580,170.120 140.734,184.055 137.328,184.012 C137.328,184.012 93.269,169.481 93.342,163.615 L93.698,135.173 C93.771,129.307 137.951,115.895 137.951,115.895 C141.357,115.939 144.083,129.945 144.010,135.811 L143.654,164.253 ZM40.066,183.113 C36.660,183.070 33.934,169.064 34.007,163.198 L34.363,134.755 C34.437,128.889 37.283,114.954 40.689,114.997 C40.689,114.997 84.749,129.527 84.675,135.393 L84.320,163.835 C84.246,169.702 40.066,183.113 40.066,183.113 Z" class="cls-8"/>
      <path d="M138.348,183.015 C138.348,183.015 97.079,170.185 97.010,164.574 L96.678,137.367 C96.609,131.755 138.900,127.003 138.900,127.003 C140.574,127.003 142.445,131.268 143.675,136.757 L144.008,163.963 C144.076,169.575 141.529,182.973 138.348,183.015 ZM40.659,183.015 C37.478,182.973 34.931,169.575 35.000,163.963 L35.332,136.757 C36.563,131.268 38.433,127.003 40.108,127.003 C40.108,127.003 82.398,131.755 82.330,137.367 L81.997,164.574 C81.929,170.185 40.659,183.015 40.659,183.015 Z" class="cls-7"/>
      <path d="M150.089,136.292 L149.981,140.828 L149.788,149.901 L149.748,158.976 L149.727,163.514 L149.685,165.886 C149.645,166.764 149.584,167.601 149.504,168.383 C149.187,171.579 148.648,174.675 147.861,177.832 C147.481,179.415 147.013,181.010 146.331,182.690 C145.980,183.532 145.548,184.416 144.886,185.392 C144.087,186.261 143.271,187.974 139.925,188.287 C139.701,188.309 139.482,188.289 139.276,188.237 L138.741,188.096 L138.737,188.095 C130.739,184.933 122.834,181.828 114.914,178.559 L103.063,173.449 C101.073,172.571 99.092,171.643 97.101,170.531 C96.098,169.978 95.122,169.333 94.106,168.541 C93.597,168.123 93.078,167.688 92.531,167.038 C92.031,166.427 91.271,165.470 91.172,163.709 C91.385,157.145 91.627,150.582 91.991,144.020 L92.207,139.098 L92.312,136.637 L92.364,135.406 L92.377,135.099 L92.384,134.945 L92.387,134.868 L92.442,134.397 L92.453,134.360 C92.530,134.120 92.511,134.056 92.665,133.671 C92.848,133.235 93.101,132.802 93.373,132.414 C93.591,132.147 93.765,131.981 93.968,131.763 C94.370,131.313 94.739,131.086 95.131,130.746 C95.900,130.170 96.666,129.676 97.431,129.228 C98.963,128.340 100.501,127.552 102.050,126.840 C105.145,125.392 108.210,123.989 111.329,122.710 L120.697,118.963 L139.457,111.466 C139.804,111.327 140.165,111.271 140.515,111.287 L140.674,111.296 L140.700,111.297 C141.395,111.363 142.129,111.538 142.782,111.802 C143.416,112.068 143.662,112.330 144.092,112.637 C144.975,113.312 145.115,113.725 145.595,114.296 C146.244,115.280 146.661,116.173 146.999,117.019 C147.657,118.711 148.101,120.314 148.457,121.903 C149.216,125.070 149.689,128.182 149.951,131.391 C150.079,132.925 150.136,134.774 150.089,136.292 ZM138.747,180.910 C138.780,180.874 138.816,180.825 138.851,180.781 C138.499,180.956 138.656,181.091 138.747,180.910 ZM97.229,163.187 C97.197,163.118 97.180,163.130 97.229,163.187 ZM139.412,118.919 C139.374,118.871 139.335,118.819 139.301,118.779 C139.214,118.597 139.040,118.730 139.412,118.919 ZM143.457,132.063 C143.054,129.261 142.434,126.400 141.610,123.724 C141.177,122.390 140.657,121.114 140.105,120.027 C140.001,119.827 139.895,119.645 139.791,119.475 C133.966,120.683 128.180,122.229 122.477,123.911 C119.290,124.833 116.173,125.948 113.058,127.038 C109.964,128.173 106.844,129.270 103.912,130.667 C102.440,131.353 101.017,132.098 99.677,132.885 C99.007,133.279 98.380,133.697 97.823,134.118 C97.595,134.328 97.250,134.550 97.117,134.737 L96.868,134.995 C96.921,134.957 96.952,134.873 96.917,134.785 C96.890,134.768 96.862,134.930 96.833,135.083 L96.834,135.149 L96.840,135.457 L96.861,136.688 L96.902,139.151 L96.991,144.077 C97.183,150.472 97.256,156.867 97.301,163.261 C97.433,163.424 97.694,163.660 97.983,163.903 C98.620,164.421 99.420,164.931 100.232,165.460 C101.879,166.505 103.686,167.481 105.530,168.401 C109.220,170.255 113.134,171.785 117.085,173.200 C124.343,175.848 131.794,178.168 139.274,180.164 C139.369,180.007 139.465,179.842 139.560,179.662 C140.121,178.574 140.645,177.296 141.090,175.965 C141.951,173.292 142.588,170.430 143.026,167.624 L143.290,165.604 C143.361,164.841 143.387,164.202 143.397,163.442 L143.493,158.906 L143.685,149.833 L143.724,140.758 L143.733,136.220 C143.746,134.714 143.681,133.535 143.457,132.063 ZM88.197,135.622 L88.176,136.857 L88.134,139.325 L88.050,144.262 L87.712,164.010 C87.569,165.670 86.828,166.572 86.323,167.155 C85.776,167.770 85.255,168.187 84.744,168.583 C83.725,169.341 82.732,169.934 81.740,170.485 C79.756,171.570 77.786,172.492 75.802,173.359 C71.826,175.062 67.866,176.652 63.875,178.158 C55.887,181.162 47.850,183.826 39.736,186.486 L39.733,186.486 L39.411,186.571 C39.210,186.624 39.001,186.637 38.805,186.616 C36.060,186.310 35.318,184.860 34.600,184.054 C33.993,183.153 33.588,182.313 33.254,181.503 C32.603,179.881 32.142,178.316 31.775,176.756 C31.001,173.646 30.481,170.568 30.184,167.403 C30.112,166.623 30.056,165.808 30.028,164.944 L30.013,162.578 L30.077,158.041 L30.206,148.967 L30.201,139.892 L30.193,135.354 C30.183,133.854 30.256,132.058 30.409,130.533 C30.716,127.361 31.231,124.274 32.014,121.143 C32.385,119.571 32.840,117.991 33.501,116.338 C33.841,115.511 34.259,114.645 34.892,113.706 C35.667,112.867 36.432,111.281 39.511,110.985 L39.536,110.984 C39.883,110.966 40.216,111.018 40.522,111.128 L40.595,111.155 C46.952,113.480 53.265,115.702 59.540,118.170 C65.820,120.623 72.096,123.047 78.270,126.114 C79.814,126.879 81.353,127.715 82.896,128.663 C83.668,129.139 84.446,129.672 85.232,130.283 C85.643,130.652 86.017,130.911 86.447,131.384 L87.068,132.084 C87.342,132.437 87.681,133.043 87.880,133.558 C88.148,134.258 88.035,134.120 88.124,134.423 L88.140,134.499 L88.148,134.537 L88.205,135.160 L88.202,135.314 L88.197,135.622 ZM82.075,163.466 C82.098,163.428 82.096,163.424 82.075,163.466 ZM39.554,180.720 C39.666,180.818 39.739,180.790 39.554,180.720 ZM40.398,117.713 C40.395,117.717 40.391,117.722 40.388,117.726 C40.694,117.591 40.510,117.510 40.398,117.713 ZM81.471,134.861 C80.938,134.459 80.343,134.051 79.692,133.657 C78.389,132.874 76.992,132.122 75.541,131.421 C69.726,128.616 63.534,126.183 57.311,123.936 C51.589,121.934 45.812,119.963 40.000,118.250 C39.846,118.481 39.687,118.744 39.535,119.033 C38.955,120.148 38.421,121.441 37.964,122.783 C37.102,125.484 36.441,128.354 35.993,131.186 C35.745,132.661 35.640,133.891 35.615,135.415 L35.492,139.951 L35.254,149.024 L35.150,158.097 L35.098,162.635 C35.089,163.390 35.083,164.057 35.136,164.804 C35.182,165.451 35.252,166.143 35.343,166.867 C35.713,169.714 36.285,172.608 37.096,175.341 C37.515,176.703 38.021,178.018 38.582,179.174 C38.805,179.625 39.041,180.006 39.264,180.324 C46.893,178.166 54.491,175.716 61.954,173.080 C65.896,171.678 69.820,170.217 73.562,168.495 C75.435,167.649 77.281,166.754 78.968,165.764 C79.808,165.272 80.610,164.754 81.265,164.238 C81.579,163.981 81.866,163.728 82.007,163.548 L82.173,144.196 L82.214,139.259 L82.235,136.790 L82.246,135.566 L82.105,135.422 C81.990,135.271 81.671,135.051 81.471,134.861 ZM82.161,135.222 C82.149,135.322 82.198,135.442 82.246,135.531 L82.247,135.421 C82.211,135.239 82.165,134.928 82.161,135.222 Z" class="cls-9"/>
      <g>
        <path d="M101.636,145.803 C101.242,146.044 100.808,146.239 100.450,146.420 C99.940,146.615 99.274,146.722 98.823,146.761 C98.325,146.773 98.039,146.780 98.039,146.780 C96.762,146.810 95.703,145.763 95.673,144.440 C95.645,143.117 96.656,142.020 97.932,141.989 C98.154,141.984 98.371,142.011 98.574,142.067 L98.717,142.107 C98.717,142.107 98.779,142.124 98.896,142.157 C98.974,142.175 99.178,142.239 99.287,142.259 C99.277,142.269 99.267,142.281 99.307,142.297 C99.535,142.247 99.782,142.232 100.095,142.151 C101.366,141.818 103.228,140.947 105.024,139.962 C108.640,137.984 112.107,135.565 112.107,135.565 C112.107,135.565 109.425,138.851 106.359,141.877 C104.816,143.391 103.199,144.843 101.636,145.803 ZM99.338,142.271 C99.328,142.270 99.301,142.261 99.287,142.259 C99.302,142.244 99.333,142.240 99.338,142.271 ZM96.689,148.082 C97.109,148.235 97.764,148.408 98.544,148.506 C101.064,148.863 104.738,148.864 108.374,148.717 C115.681,148.420 123.009,147.547 123.009,147.547 C123.009,147.547 115.918,149.579 108.640,151.064 C104.993,151.800 101.327,152.416 98.341,152.487 C97.792,152.489 97.269,152.486 96.760,152.452 C96.775,152.608 96.798,152.845 96.830,153.167 C96.887,153.287 96.925,153.157 96.876,153.258 C96.931,153.405 97.200,153.722 97.376,154.013 C98.406,155.247 100.524,156.740 102.735,158.005 C107.197,160.571 112.107,162.460 112.107,162.460 C112.107,162.460 106.956,161.740 101.857,160.185 C99.307,159.392 96.766,158.428 94.850,157.019 C94.364,156.580 93.955,156.285 93.533,155.788 C93.089,155.187 92.713,154.473 92.550,154.062 C92.371,153.502 92.269,153.182 92.269,153.182 C91.983,152.284 92.246,151.341 92.862,150.726 C92.557,150.260 92.356,149.689 92.348,149.610 C92.293,149.394 92.264,149.279 92.264,149.279 C91.927,148.017 92.642,146.711 93.859,146.362 C95.078,146.013 96.338,146.754 96.674,148.016 C96.680,148.036 96.684,148.060 96.689,148.082 ZM96.779,148.740 C96.789,148.775 96.786,148.737 96.772,148.666 C96.775,148.694 96.776,148.708 96.779,148.740 ZM96.230,147.856 C96.249,147.888 96.328,147.933 96.426,147.980 C96.267,147.821 96.302,147.867 96.230,147.856 ZM85.768,149.454 C85.603,149.441 85.431,149.406 85.279,149.359 C85.279,149.359 85.200,149.334 85.052,149.288 C84.866,149.221 84.779,149.225 84.283,149.018 C84.002,148.899 83.540,148.705 83.204,148.521 C83.221,148.759 83.215,149.002 83.159,149.247 C83.121,149.413 83.062,149.583 82.994,149.732 C82.994,149.732 82.905,149.925 82.737,150.286 C82.547,150.567 82.375,150.772 82.212,150.946 C82.915,151.443 83.331,152.316 83.206,153.248 C83.176,153.465 83.115,153.682 83.036,153.874 C83.036,153.874 83.009,153.937 82.960,154.054 C82.868,154.244 82.932,154.180 82.651,154.724 C82.437,155.154 81.846,155.985 81.549,156.154 C81.220,156.399 80.830,156.749 80.444,156.947 C78.873,157.909 76.867,158.693 74.838,159.393 C70.794,160.775 66.712,161.722 66.712,161.722 C66.712,161.722 70.416,159.654 73.839,157.269 C75.539,156.087 77.189,154.794 78.093,153.792 C78.311,153.589 78.408,153.415 78.518,153.258 C78.520,153.260 78.518,153.263 78.520,153.265 C78.525,153.340 78.535,153.296 78.545,153.220 C78.562,153.198 78.576,153.171 78.595,153.149 C78.714,152.988 78.620,153.048 78.556,153.132 C78.567,153.040 78.577,152.942 78.582,152.928 C78.599,152.802 78.608,152.736 78.608,152.736 L78.628,152.588 C78.655,152.386 78.712,152.199 78.783,152.019 C78.367,152.033 77.938,152.037 77.475,152.031 C75.072,151.977 72.036,151.643 69.008,151.241 C62.961,150.431 56.999,149.321 56.999,149.321 C56.999,149.321 63.068,149.254 69.087,148.879 C72.089,148.693 75.096,148.426 77.211,148.054 C77.869,147.941 78.435,147.805 78.843,147.679 C79.120,147.073 79.629,146.634 80.226,146.437 C78.844,145.369 77.332,144.102 75.838,142.806 C71.770,139.272 67.901,135.565 67.901,135.565 C67.901,135.565 72.459,138.329 77.107,140.843 C79.425,142.097 81.778,143.292 83.511,144.012 C83.948,144.213 84.324,144.321 84.664,144.453 C85.078,144.623 85.055,144.523 85.206,144.599 C85.234,144.649 85.613,144.651 85.722,144.668 C85.876,144.680 85.957,144.687 85.957,144.687 L86.123,144.700 C87.390,144.802 88.338,145.948 88.240,147.261 C88.142,148.574 87.035,149.556 85.768,149.454 ZM78.610,148.469 C78.602,148.500 78.604,148.495 78.610,148.469 ZM79.213,147.547 C79.267,147.523 79.337,147.498 79.371,147.477 C79.499,147.493 79.469,147.311 79.213,147.547 ZM78.518,153.258 C78.497,153.230 78.521,153.178 78.556,153.132 C78.552,153.164 78.549,153.194 78.545,153.220 C78.536,153.232 78.527,153.246 78.518,153.258 Z" class="cls-9"/>
        <path d="M87.685,164.734 C82.634,164.665 78.598,160.379 78.661,155.174 L78.812,142.614 C78.879,137.473 82.964,133.292 87.921,133.292 C93.087,133.362 97.122,137.648 97.060,142.849 L96.909,155.409 C96.842,160.549 92.753,164.734 87.791,164.734 L87.685,164.734 Z" class="cls-7"/>
        <path d="M87.924,135.571 C87.954,135.571 87.983,135.571 88.012,135.572 L88.037,135.572 C91.838,135.622 94.909,138.885 94.861,142.823 L94.708,155.383 C94.661,159.291 91.559,162.454 87.797,162.454 C87.797,162.454 87.738,162.454 87.709,162.453 L87.685,162.453 C83.883,162.403 80.812,159.140 80.860,155.202 L81.013,142.642 C81.060,138.735 84.163,135.571 87.924,135.571 M87.924,131.015 C81.766,131.016 76.693,136.206 76.615,142.585 L76.463,155.145 C76.384,161.605 81.393,166.927 87.629,167.008 C87.630,167.008 87.631,167.008 87.631,167.008 C93.957,167.008 99.028,161.819 99.106,155.440 L99.258,142.881 C99.337,136.420 94.328,131.098 88.092,131.017 C88.073,131.016 87.943,131.015 87.943,131.015 L87.924,131.015 Z" class="cls-9"/>
      </g>
    </g>
  </g>
</svg>
