<svg xmlns="http://www.w3.org/2000/svg" xmlns:xlink="http://www.w3.org/1999/xlink" preserveAspectRatio="xMidYMid" width="151" height="178" viewBox="0 0 151 178">
  <g>
    <path fill="#8cbeb2" d="M66.062,-11.869 L70.589,-3.954 L72.853,-13.000 L66.062,-11.869 Z" class="cls-1"/>
    <path fill="#8cbeb2" d="M89.829,14.138 L90.961,22.054 L94.357,20.923 L89.829,14.138 Z" class="cls-1"/>
    <path fill="#f06060" d="M95.488,0.569 L98.884,6.223 L101.147,5.092 L98.884,-3.954 L95.488,0.569 Z" class="cls-2"/>
    <path fill="#8cbeb2" d="M27.558,-4.208 L29.822,-1.946 L33.217,-6.469 L27.558,-4.208 Z" class="cls-1"/>
    <path fill="#f06060" d="M21.922,54.846 L30.977,65.023 L30.977,58.238 L21.922,54.846 Z" class="cls-2"/>
    <path fill="#8cbeb2" d="M40.031,94.423 L44.558,91.031 L45.690,95.554 L40.031,94.423 Z" class="cls-1"/>
    <path fill="#f3b562" d="M122.364,0.792 L124.628,4.185 L131.419,3.054 L129.155,-3.731 L122.364,0.792 Z" class="cls-3"/>
    <path fill="#8cbeb2" d="M147.550,41.277 L147.550,43.538 L150.946,43.538 L150.946,41.277 L147.550,41.277 Z" class="cls-1"/>
    <path fill="#f06060" d="M28.946,166.069 L31.209,163.808 L33.473,167.200 L28.946,166.069 Z" class="cls-2"/>
    <path fill="#f3b562" d="M131.078,125.246 L139.000,124.115 L136.736,129.769 L131.078,125.246 Z" class="cls-3"/>
    <path fill="#8cbeb2" d="M123.938,149.869 L119.411,141.954 L117.147,151.000 L123.938,149.869 Z" class="cls-1"/>
    <path fill="#8cbeb2" d="M66.171,137.862 L65.039,129.946 L61.643,131.077 L66.171,137.862 Z" class="cls-1"/>
    <path fill="#f06060" d="M78.512,120.431 L75.116,114.777 L72.853,115.908 L75.116,124.954 L78.512,120.431 Z" class="cls-2"/>
    <path fill="#f3b562" d="M106.442,89.208 L104.178,86.946 L100.783,91.469 L106.442,89.208 Z" class="cls-3"/>
    <path fill="#f06060" d="M123.078,82.154 L114.023,71.977 L114.023,78.762 L123.078,82.154 Z" class="cls-2"/>
    <path fill="#f06060" d="M13.078,177.154 L4.023,166.977 L4.023,173.762 L13.078,177.154 Z" class="cls-2"/>
    <path fill="#8cbeb2" d="M116.969,34.577 L112.442,37.969 L111.310,33.446 L116.969,34.577 Z" class="cls-1"/>
    <path fill="#f3b562" d="M17.636,134.208 L15.372,130.815 L8.581,131.946 L10.845,138.731 L17.636,134.208 Z" class="cls-3"/>
    <path fill="#8cbeb2" d="M26.450,79.723 L26.450,77.462 L23.054,77.462 L23.054,79.723 L26.450,79.723 Z" class="cls-1"/>
    <path fill="#f06060" d="M35.054,33.931 L32.791,36.192 L30.527,32.800 L35.054,33.931 Z" class="cls-2"/>
    <path fill="#f3b562" d="M7.922,15.754 L-0.000,16.885 L2.264,11.231 L7.922,15.754 Z" class="cls-3"/>
  </g>
</svg>
